<svg width="1308" height="973" viewBox="0 0 1308 973" fill="none" xmlns="http://www.w3.org/2000/svg">
<path d="M838.895 402.071C839.671 402.766 840.447 403.461 841.246 404.176C841.878 404.737 842.509 405.298 843.16 405.876C864.393 425.896 874.347 454.716 875.246 483.329C875.411 497.551 873.796 511.677 869.246 525.176C868.836 526.393 868.426 527.61 868.004 528.864C862.198 544.61 853.12 557.429 841.246 569.176C840.447 569.997 839.648 570.819 838.824 571.665C828.362 581.828 815.064 587.978 801.246 592.176C800.488 592.41 799.73 592.643 798.949 592.883C773.511 599.955 744.938 594.575 722.082 582.567C717.187 579.516 712.75 575.779 708.246 572.176C707.916 611.776 707.586 651.376 707.246 692.176C683.486 692.176 659.726 692.176 635.246 692.176C635.246 590.866 635.246 489.556 635.246 385.176C658.676 385.176 682.106 385.176 706.246 385.176C706.576 391.776 706.906 398.376 707.246 405.176C708.607 403.877 709.969 402.578 711.371 401.239C747.321 369.126 802.905 371.231 838.895 402.071ZM717.246 453.176C706.738 464.91 704.427 478.951 705.246 494.176C707.053 507.1 713.329 516.846 723.246 525.176C726.122 527.218 729.018 528.763 732.246 530.176C733.586 530.764 733.586 530.764 734.953 531.364C748.626 536.635 761.543 534.739 774.738 529.114C786.454 523.276 793.201 513.117 797.668 501.196C801.606 487.441 799.337 472.871 792.613 460.419C786.536 450.453 777.455 444.197 766.312 440.895C748.356 436.686 731.024 440.941 717.246 453.176Z" fill="black"/>
<path d="M1042.32 378.055C1069.3 377.183 1093.22 386.649 1112.84 404.844C1135.62 426.951 1145.86 455.196 1146.5 486.676C1145.85 518.528 1135.34 545.216 1113.25 568.176C1112.66 568.834 1112.08 569.491 1111.48 570.169C1098.49 584.409 1076.18 593.625 1057.24 595.047C1027.01 596.35 1003.47 591.018 979.246 572.176C978.916 611.776 978.586 651.376 978.246 692.176C954.816 692.176 931.386 692.176 907.246 692.176C907.246 590.866 907.246 489.556 907.246 385.176C930.346 385.176 953.446 385.176 977.246 385.176C977.741 395.571 977.741 395.571 978.246 406.176C979.442 404.877 980.639 403.578 981.871 402.239C998.24 385.895 1019.73 379.376 1042.32 378.055ZM989.246 452.176C980.069 462.775 975.665 475.287 976 489.258C977.118 502.51 981.811 513.907 991.551 523.102C1003.13 532.01 1016.75 535.825 1031.25 534.176C1039.88 532.496 1047.78 529.226 1054.25 523.176C1055.11 522.393 1055.98 521.609 1056.87 520.801C1067.88 508.634 1071.13 496.549 1070.43 480.336C1069.49 469.089 1064.12 458.507 1055.93 450.864C1036.65 434.848 1008.16 435.517 989.246 452.176Z" fill="black"/>
<path d="M516.246 401.176C516.576 395.896 516.906 390.616 517.246 385.176C541.006 385.176 564.766 385.176 589.246 385.176C589.246 452.496 589.246 519.816 589.246 589.176C565.816 589.176 542.386 589.176 518.246 589.176C517.916 582.246 517.586 575.316 517.246 568.176C515.699 569.661 514.152 571.146 512.558 572.676C492.602 591.13 468.275 596.026 441.972 595.313C415.209 593.975 392.57 580.238 374.803 560.968C363.451 547.911 356.237 531.887 352.246 515.176C352.032 514.324 351.818 513.472 351.597 512.594C347.032 491.586 348.631 468.527 355.246 448.176C355.605 447.069 355.965 445.962 356.336 444.821C360.511 433.055 367.2 422.671 375.246 413.176C376.035 412.23 376.824 411.284 377.636 410.309C394.329 390.864 417.165 380.712 442.465 378.454C470.11 376.426 494.666 383.912 516.246 401.176ZM437.164 454.09C427.62 464.196 424.791 476.859 424.992 490.352C425.983 505.286 431.999 515.878 443.035 525.782C453.731 534.019 467.18 535.344 480.246 534.176C488.014 532.648 494.943 529.987 501.246 525.176C501.923 524.674 502.599 524.171 503.297 523.653C512.57 516.213 517.319 505.738 519.246 494.176C520.183 479.739 517.745 466.78 508.687 455.18C499.761 445.569 488.001 440.176 475.019 439.172C459.611 439.194 448.433 443.73 437.164 454.09Z" fill="black"/>
<path d="M1152.58 622.711C1154.52 624.149 1156.4 625.622 1158.25 627.176C1158.58 624.866 1158.91 622.556 1159.25 620.176C1163.21 620.176 1167.17 620.176 1171.25 620.176C1171.25 641.626 1171.25 663.076 1171.25 685.176C1167.29 685.176 1163.33 685.176 1159.25 685.176C1158.75 681.711 1158.75 681.711 1158.25 678.176C1157.77 678.575 1157.3 678.973 1156.81 679.383C1149.45 685.285 1142.58 687.839 1133.08 687.52C1124.22 686.445 1117.17 682.818 1111.25 676.176C1104.77 667.63 1102.53 658.143 1103.49 647.457C1105.15 637.977 1109.45 629.639 1117.16 623.7C1127.87 616.621 1141.62 615.508 1152.58 622.711ZM1122.93 634.239C1117.99 639.638 1115 645.279 1114.62 652.676C1114.96 659.236 1117.31 664.982 1121.77 669.84C1126.81 674.22 1131.57 676.067 1138.25 676.176C1144.54 675.433 1149.7 673.13 1153.91 668.243C1159.38 661.164 1160.32 655.106 1159.25 646.176C1157 640.515 1153.62 635.227 1148.25 632.176C1138.68 628.704 1131.84 628.694 1122.93 634.239Z" fill="black"/>
<path d="M1251.25 574.176C1255.21 574.176 1259.17 574.176 1263.25 574.176C1263.58 591.666 1263.91 609.156 1264.25 627.176C1266.56 625.196 1268.87 623.216 1271.25 621.176C1278.28 617.827 1284.3 617.164 1291.81 619.301C1298.03 621.618 1302.53 625.111 1305.42 631.162C1307.76 636.697 1307.76 641.838 1307.64 647.774C1307.63 648.849 1307.63 649.924 1307.62 651.031C1307.6 654.434 1307.55 657.836 1307.5 661.239C1307.48 663.558 1307.46 665.878 1307.44 668.198C1307.4 673.858 1307.33 679.517 1307.25 685.176C1303.62 685.176 1299.99 685.176 1296.25 685.176C1296.23 683.141 1296.23 683.141 1296.22 681.065C1296.18 676.012 1296.11 670.96 1296.04 665.907C1296.01 663.724 1295.99 661.541 1295.98 659.358C1295.95 656.212 1295.91 653.068 1295.86 649.922C1295.85 648.952 1295.85 647.982 1295.85 646.983C1295.72 640.886 1294.84 637.156 1291.25 632.176C1287.02 630.063 1281.84 630.682 1277.25 631.176C1272.24 632.898 1269.26 635.576 1266.81 640.239C1264.41 645.67 1264.05 650.767 1263.93 656.661C1263.91 657.476 1263.89 658.292 1263.87 659.132C1263.8 661.73 1263.74 664.328 1263.68 666.926C1263.64 668.691 1263.6 670.455 1263.55 672.219C1263.45 676.538 1263.34 680.857 1263.25 685.176C1259.29 685.176 1255.33 685.176 1251.25 685.176C1251.25 648.546 1251.25 611.916 1251.25 574.176Z" fill="black"/>
<path d="M1080.16 624.235C1086.93 630.166 1091.14 635.394 1093.25 644.176C1088.86 644.518 1084.62 644.705 1080.25 644.176C1077.81 641.489 1077.81 641.489 1076.25 638.176C1071.86 633.576 1067.38 631.16 1061.06 630.739C1054.49 630.936 1048.9 633.449 1044.32 638.161C1040.38 643.472 1038.81 648.575 1039.25 655.176C1040.38 661.706 1043.25 666.818 1048.25 671.176C1053.92 674.624 1059.77 675.275 1066.25 674.176C1070.98 672.213 1075.24 670.167 1077.61 665.489C1078.15 664.726 1078.69 663.963 1079.25 663.176C1082.38 662.688 1082.38 662.688 1085.93 662.864C1087.11 662.909 1088.29 662.954 1089.51 663.001C1090.86 663.088 1090.86 663.088 1092.25 663.176C1091.15 670.314 1087.13 675.974 1081.56 680.489C1073.18 686.196 1064.31 688.431 1054.25 687.176C1045.47 685.362 1039.06 680.926 1033.25 674.176C1026.87 664.037 1025.49 652.838 1027.86 641.149C1031.06 632.219 1037.09 625.987 1045.43 621.676C1056.85 616.29 1069.64 616.814 1080.16 624.235Z" fill="black"/>
<path d="M1225.25 621.176C1226.61 621.702 1226.61 621.702 1228 622.239C1231.66 625.396 1233.52 629.706 1235.25 634.176C1235.25 635.166 1235.25 636.156 1235.25 637.176C1231.19 637.521 1227.29 637.717 1223.25 637.176C1220.75 634.301 1220.75 634.301 1219.25 631.176C1216.25 629.193 1213.8 628.905 1210.25 628.926C1208.98 628.919 1208.98 628.919 1207.68 628.911C1205.07 629.195 1203.46 629.776 1201.25 631.176C1199.85 633.975 1199.99 636.081 1200.25 639.176C1202.41 641.973 1204.7 642.922 1208 644.051C1208.96 644.39 1209.93 644.729 1210.93 645.079C1213.31 645.867 1215.7 646.629 1218.09 647.368C1218.75 647.575 1219.41 647.782 1220.08 647.995C1221.97 648.588 1223.87 649.162 1225.77 649.735C1230.36 651.639 1233.67 653.956 1236.6 658.09C1238.41 663.95 1237.97 670.909 1236.12 676.676C1232.01 682.164 1227.06 685.875 1220.25 687.176C1210.3 687.985 1199.79 688.56 1191.64 681.856C1187.74 677.673 1185.25 671.88 1185.25 666.176C1189.21 666.176 1193.17 666.176 1197.25 666.176C1197.76 667.434 1198.28 668.693 1198.81 669.989C1200.48 673.306 1201.19 674.14 1204.5 676.176C1211.66 678.086 1216.68 677.659 1223.25 674.176C1224.79 671.085 1224.54 668.582 1224.25 665.176C1221.51 661.745 1219.02 660.47 1214.85 659.247C1213.81 658.926 1212.77 658.605 1211.71 658.274C1209.54 657.629 1207.37 656.989 1205.2 656.352C1198.17 654.17 1191.88 651.816 1188.09 645.133C1186.17 640.687 1186.61 635.515 1187.86 630.922C1190.72 624.269 1195.76 621.803 1202.06 618.864C1210.24 617.098 1217.59 617.891 1225.25 621.176Z" fill="black"/>
<path d="M255.814 44.6806C262.341 33.6338 270.676 19.5744 274.19 13.348C277.805 7.12167 281.019 2.10042 281.42 2C281.922 2 282.224 2.4017 282.224 3.00425C282.224 3.6068 281.822 5.01275 281.32 6.21785C280.818 7.52337 278.408 14.8544 275.897 22.5871C273.387 30.3198 268.065 47.0908 264.149 59.7443C260.132 72.3979 255.413 87.3612 253.505 92.8845C251.496 98.4079 246.174 115.38 241.455 130.544C236.735 145.708 229.104 169.71 224.484 183.769C219.865 197.829 212.635 220.625 208.418 234.484C204.2 248.242 198.477 266.318 195.665 274.654C192.954 282.888 188.234 297.852 185.222 307.794C182.209 317.736 178.594 329.887 177.088 334.909C175.682 339.93 173.373 347.361 172.067 351.479C170.762 355.596 169.457 361.019 169.155 363.53C168.754 366.542 169.155 369.354 170.16 371.765C171.063 373.873 172.971 376.384 174.477 377.288C176.988 378.995 183.214 379.096 257.12 379.598C330.624 380.1 337.251 380.2 340.264 381.807C341.971 382.811 344.682 385.322 346.289 387.33C348.397 390.243 349 392.05 349 396.067C349 400.586 348.197 402.595 341.569 413.742C337.553 420.671 327.009 438.246 318.373 452.908C309.637 467.57 298.692 486.048 294.073 494.082C289.353 502.116 280.014 517.883 273.186 529.231C266.358 540.579 258.525 553.634 255.613 558.354C252.701 563.074 240.953 582.657 229.505 602.039C218.058 621.32 201.59 649.138 192.853 663.8C184.117 678.462 174.779 694.229 172.168 698.949C169.457 703.669 167.047 707.686 166.745 707.987C166.444 708.288 165.741 709.393 165.039 710.497L165.038 710.498C164.436 711.602 159.114 720.44 153.39 730.081C147.666 739.721 137.625 756.492 131.098 767.238C124.571 777.983 117.441 790.034 115.132 793.85C112.923 797.667 108.605 804.696 105.592 809.416C102.58 814.136 94.5464 827.191 87.8186 838.539C80.9903 849.888 74.865 859.83 74.162 860.633C73.4591 861.436 69.4425 867.763 65.225 874.692C61.0076 881.622 50.6648 897.891 42.1294 910.845C33.5941 923.8 21.2429 942.68 14.6155 952.723C7.98806 962.765 2.36478 971 2.06353 971C1.76228 971 2.56561 967.586 3.7706 963.267C4.87517 959.049 6.88348 953.024 7.98806 950.011C9.19305 946.998 10.4985 943.584 11.0005 942.479C11.4462 941.499 14.9772 932.527 19.2762 921.604L20.9417 917.373C25.9625 904.619 33.6945 884.735 38.1128 873.186C42.5311 861.637 47.9535 847.578 50.2631 842.054C52.6731 836.531 56.5893 826.79 58.9993 820.463C61.4092 814.136 65.6267 803.089 68.3379 795.859C71.0492 788.628 74.0616 780.795 75.1662 778.285C76.1704 775.774 77.9779 771.757 79.1828 769.246C80.2874 766.736 84.5049 756.392 88.4211 746.149C92.4377 735.905 98.8643 719.938 102.68 710.498C106.396 701.058 109.508 692.823 109.508 692.12C109.508 691.517 109.81 690.915 110.312 690.915C110.713 690.915 111.818 689.007 112.722 686.597C113.625 684.287 119.65 669.022 126.077 652.753C132.504 636.485 138.629 621.32 139.834 619.111C140.939 616.902 145.859 605.152 150.679 593.001C155.499 580.849 162.729 563.275 166.745 553.835C170.762 544.395 176.486 530.436 179.498 522.703C182.511 514.97 185.925 506.133 187.029 503.12C188.736 498.501 188.937 496.994 187.933 493.781C187.331 491.772 185.824 489.463 184.619 488.76C182.812 487.856 164.034 487.554 101.977 487.354C31.5858 487.153 21.3434 486.952 19.4355 485.546C18.1301 484.743 16.2222 482.533 15.1176 480.726C14.013 479.018 13.1093 476.006 13.1093 474.198C13.1093 472.491 13.9126 469.277 15.0172 467.168C16.0213 465.16 19.335 459.435 22.3475 454.414C25.36 449.393 31.3849 438.848 35.7028 430.814C40.0207 422.78 45.4431 413.34 47.7527 409.725C50.0623 406.11 55.8864 396.268 60.7063 387.833C65.4259 379.497 69.3421 372.066 69.3421 371.564C69.3421 371.062 69.6433 370.559 70.1454 370.559C70.5471 370.559 71.9529 368.451 73.3587 365.839C74.7645 363.128 76.1704 360.818 76.4716 360.517C76.8733 360.216 79.4841 355.697 82.3961 350.474C85.3082 345.252 95.2494 327.879 104.488 311.811C113.726 295.743 121.96 281.282 122.763 279.675C123.667 278.068 126.077 273.549 128.286 269.632C130.495 265.716 137.625 253.364 144.152 242.016C150.679 230.668 156.202 220.725 156.503 219.922C156.804 219.119 158.31 216.407 159.716 213.897C161.223 211.386 164.938 205.059 167.95 199.837C171.063 194.615 176.988 184.171 181.004 176.739C185.121 169.308 188.536 162.68 188.636 161.977C188.736 161.274 189.138 160.671 189.64 160.671C190.042 160.772 190.946 159.265 191.749 157.458C192.552 155.65 194.259 152.738 195.364 151.131C196.569 149.524 198.276 146.712 199.079 145.105C199.883 143.499 203.698 136.67 207.414 130.042C211.129 123.414 219.464 108.752 225.991 97.4037C232.417 86.0556 239.145 74.1051 240.752 70.7911C242.459 67.477 249.187 55.7273 255.814 44.6806Z" fill="url(#paint0_linear_1626_383)" stroke="#338247" stroke-width="4"/>
<path d="M179.236 469C196.24 469 194.239 488.375 190.238 500C190.238 490 187.123 486.5 183 486.5C182 486.5 27.1999 485.027 26.7029 485C18.9997 484.578 16.4695 483.301 15.5 477C14.5 470.5 22.0353 469.484 26.7029 469H179.236Z" fill="#1EA44F"/>
<path d="M343.5 387L7 961L45.5 903.5L83 843.5L159.5 716L311 461.5L337.5 417C338.5 415.667 341.9 411.1 345.5 403.5C347.835 398.57 347.322 393.247 346 390.5C345.284 389.012 344.203 387.761 343.5 387Z" fill="#179949"/>
<defs>
<linearGradient id="paint0_linear_1626_383" x1="307" y1="-16" x2="0.49997" y2="982.5" gradientUnits="userSpaceOnUse">
<stop stop-color="#0DB460"/>
<stop offset="1" stop-color="#76E568"/>
</linearGradient>
</defs>
</svg>
