<svg width="351" height="973" viewBox="0 0 351 973" fill="none" xmlns="http://www.w3.org/2000/svg">
<path d="M255.814 44.6806C262.341 33.6338 270.676 19.5744 274.19 13.348C277.805 7.12167 281.019 2.10042 281.42 2C281.922 2 282.224 2.4017 282.224 3.00425C282.224 3.6068 281.822 5.01275 281.32 6.21785C280.818 7.52337 278.408 14.8544 275.897 22.5871C273.387 30.3198 268.065 47.0908 264.149 59.7443C260.132 72.3979 255.413 87.3612 253.505 92.8845C251.496 98.4079 246.174 115.38 241.455 130.544C236.735 145.708 229.104 169.71 224.484 183.769C219.865 197.829 212.635 220.625 208.418 234.484C204.2 248.242 198.477 266.318 195.665 274.654C192.954 282.888 188.234 297.852 185.222 307.794C182.209 317.736 178.594 329.887 177.088 334.909C175.682 339.93 173.373 347.361 172.067 351.479C170.762 355.596 169.457 361.019 169.155 363.53C168.754 366.542 169.155 369.354 170.16 371.765C171.063 373.873 172.971 376.384 174.477 377.288C176.988 378.995 183.214 379.096 257.12 379.598C330.624 380.1 337.251 380.2 340.264 381.807C341.971 382.811 344.682 385.322 346.289 387.33C348.397 390.243 349 392.05 349 396.067C349 400.586 348.197 402.595 341.569 413.742C337.553 420.671 327.009 438.246 318.373 452.908C309.637 467.57 298.692 486.048 294.073 494.082C289.353 502.116 280.014 517.883 273.186 529.231C266.358 540.579 258.525 553.634 255.613 558.354C252.701 563.074 240.953 582.657 229.505 602.039C218.058 621.32 201.59 649.138 192.853 663.8C184.117 678.462 174.779 694.229 172.168 698.949C169.457 703.669 167.047 707.686 166.745 707.987C166.444 708.288 165.741 709.393 165.039 710.497L165.038 710.498C164.436 711.602 159.114 720.44 153.39 730.081C147.666 739.721 137.625 756.492 131.098 767.238C124.571 777.983 117.441 790.034 115.132 793.85C112.923 797.667 108.605 804.696 105.592 809.416C102.58 814.136 94.5464 827.191 87.8186 838.539C80.9903 849.888 74.865 859.83 74.162 860.633C73.4591 861.436 69.4425 867.763 65.225 874.692C61.0076 881.622 50.6648 897.891 42.1294 910.845C33.5941 923.8 21.2429 942.68 14.6155 952.723C7.98806 962.765 2.36478 971 2.06353 971C1.76228 971 2.56561 967.586 3.7706 963.267C4.87517 959.049 6.88348 953.024 7.98806 950.011C9.19305 946.998 10.4985 943.584 11.0005 942.479C11.4462 941.499 14.9772 932.527 19.2762 921.604L20.9417 917.373C25.9625 904.619 33.6945 884.735 38.1128 873.186C42.5311 861.637 47.9535 847.578 50.2631 842.054C52.6731 836.531 56.5893 826.79 58.9993 820.463C61.4092 814.136 65.6267 803.089 68.3379 795.859C71.0492 788.628 74.0616 780.795 75.1662 778.285C76.1704 775.774 77.9779 771.757 79.1828 769.246C80.2874 766.736 84.5049 756.392 88.4211 746.149C92.4377 735.905 98.8643 719.938 102.68 710.498C106.396 701.058 109.508 692.823 109.508 692.12C109.508 691.517 109.81 690.915 110.312 690.915C110.713 690.915 111.818 689.007 112.722 686.597C113.625 684.287 119.65 669.022 126.077 652.753C132.504 636.485 138.629 621.32 139.834 619.111C140.939 616.902 145.859 605.152 150.679 593.001C155.499 580.849 162.729 563.275 166.745 553.835C170.762 544.395 176.486 530.436 179.498 522.703C182.511 514.97 185.925 506.133 187.029 503.12C188.736 498.501 188.937 496.994 187.933 493.781C187.331 491.772 185.824 489.463 184.619 488.76C182.812 487.856 164.034 487.554 101.977 487.354C31.5858 487.153 21.3434 486.952 19.4355 485.546C18.1301 484.743 16.2222 482.533 15.1176 480.726C14.013 479.018 13.1093 476.006 13.1093 474.198C13.1093 472.491 13.9126 469.277 15.0172 467.168C16.0213 465.16 19.335 459.435 22.3475 454.414C25.36 449.393 31.3849 438.848 35.7028 430.814C40.0207 422.78 45.4431 413.34 47.7527 409.725C50.0623 406.11 55.8864 396.268 60.7063 387.833C65.4259 379.497 69.3421 372.066 69.3421 371.564C69.3421 371.062 69.6433 370.559 70.1454 370.559C70.5471 370.559 71.9529 368.451 73.3587 365.839C74.7645 363.128 76.1704 360.818 76.4716 360.517C76.8733 360.216 79.4841 355.697 82.3961 350.474C85.3082 345.252 95.2494 327.879 104.488 311.811C113.726 295.743 121.96 281.282 122.763 279.675C123.667 278.068 126.077 273.549 128.286 269.632C130.495 265.716 137.625 253.364 144.152 242.016C150.679 230.668 156.202 220.725 156.503 219.922C156.804 219.119 158.31 216.407 159.716 213.897C161.223 211.386 164.938 205.059 167.95 199.837C171.063 194.615 176.988 184.171 181.004 176.739C185.121 169.308 188.536 162.68 188.636 161.977C188.736 161.274 189.138 160.671 189.64 160.671C190.042 160.772 190.946 159.265 191.749 157.458C192.552 155.65 194.259 152.738 195.364 151.131C196.569 149.524 198.276 146.712 199.079 145.105C199.883 143.499 203.698 136.67 207.414 130.042C211.129 123.414 219.464 108.752 225.991 97.4037C232.417 86.0556 239.145 74.1051 240.752 70.7911C242.459 67.477 249.187 55.7273 255.814 44.6806Z" fill="url(#paint0_linear_1626_396)" stroke="#338247" stroke-width="4"/>
<path d="M179.237 469C196.24 469 194.24 488.375 190.239 500C190.239 490 187.124 486.5 183.001 486.5C182.001 486.5 27.2003 485.027 26.7034 485C19.0002 484.578 16.4699 483.301 15.5005 477C14.5005 470.5 22.0358 469.484 26.7034 469H179.237Z" fill="#1EA44F"/>
<path d="M343.5 387L7 961L45.5 903.5L83 843.5L159.5 716L311 461.5L337.5 417C338.5 415.667 341.9 411.1 345.5 403.5C347.835 398.57 347.322 393.247 346 390.5C345.284 389.012 344.203 387.761 343.5 387Z" fill="#179949"/>
<defs>
<linearGradient id="paint0_linear_1626_396" x1="307" y1="-16" x2="0.49997" y2="982.5" gradientUnits="userSpaceOnUse">
<stop stop-color="#0DB460"/>
<stop offset="1" stop-color="#76E568"/>
</linearGradient>
</defs>
</svg>
